<svg width="27" height="24" viewBox="0 0 27 24" fill="none" xmlns="http://www.w3.org/2000/svg">
<path d="M13.5 12C16.6066 12 19.125 9.76142 19.125 7C19.125 4.23858 16.6066 2 13.5 2C10.3934 2 7.875 4.23858 7.875 7C7.875 9.76142 10.3934 12 13.5 12Z" fill="#A5A5A7"/>
<path d="M3.83618 22C3.80281 22 3.78286 21.9908 3.7737 21.9848C3.77929 20.1186 4.81523 18.3861 6.5688 17.1008C8.32668 15.8123 10.7772 15 13.4999 15C16.2227 15 18.6732 15.8123 20.4311 17.1008C22.1846 18.3861 23.2206 20.1186 23.2262 21.9848C23.217 21.9908 23.197 22 23.1637 22H3.83618Z" fill="#A5A5A7" stroke="#A5A5A7"/>
</svg>
